<svg width="18" height="24" viewBox="0 0 18 24" fill="none" xmlns="http://www.w3.org/2000/svg">
<path d="M16.1175 9.89268L14.917 7.44532L15.0499 10.1684C15.151 12.2106 14.2077 13.3418 13.444 13.9182C13.727 11.8183 13.9742 7.35352 11.7079 4.03371C10.291 1.95884 8.13181 0.689191 5.28833 0.259811L3.57034 0L4.81063 1.21747C6.2905 2.6701 7.04316 4.2076 7.04759 5.78854C7.04975 6.70056 6.80062 7.51617 6.49131 8.1768C6.41744 7.02332 6.00561 5.72206 4.68237 5.00699L3.78851 4.52435L3.85278 5.53748C3.99887 7.84665 3.01275 9.2559 1.968 10.7483C0.913135 12.2551 -0.177159 13.8127 0.0242159 16.2461C0.36787 20.4001 2.91987 22.6923 7.60965 23.0587C7.71819 23.0675 7.83135 23.0714 7.94671 23.0714C10.3498 23.0714 13.9704 21.2501 15.8703 18.2008C16.9746 16.4312 17.9129 13.5517 16.1175 9.89268ZM7.94723 21.9467C7.9214 21.9467 7.89778 21.9445 7.87308 21.944C7.94723 21.9423 8.01428 21.9412 8.07775 21.9407C8.03484 21.9418 7.98953 21.9467 7.94723 21.9467ZM14.9165 17.6064C13.3831 20.0666 10.5251 21.6616 8.48069 21.9094C10.697 21.2177 11.9524 12.8716 7.42008 11.5225C8.61558 13.5974 6.78387 15.5379 5.2035 16.479C3.62313 17.4201 2.55697 18.3058 3.2017 20.3298C3.22532 20.404 3.2608 20.4678 3.29237 20.5353C2.01251 19.5771 1.31094 18.1338 1.14721 16.1537C0.978817 14.1254 1.90787 12.7985 2.89075 11.3942C3.76814 10.1413 4.74142 8.74992 4.95188 6.77151C5.74081 8.09009 5.1859 10.1369 5.1788 10.1622L4.61152 12.1931L6.11496 10.7157C6.19875 10.6331 8.17331 8.65902 8.17279 5.80096C8.17223 4.39665 7.6981 3.03963 6.76081 1.75017C8.48073 2.29986 9.82679 3.27615 10.7767 4.66507C13.5002 8.64829 12.1596 14.7836 12.1459 14.8462L11.9278 15.8121L12.8695 15.5033C12.8964 15.4945 15.0012 14.7759 15.8418 12.4898C16.2944 14.6857 15.6483 16.4312 14.9165 17.6064Z" fill="#6A0DAD"/>
</svg>
